<svg xmlns="http://www.w3.org/2000/svg" xmlns:xlink="http://www.w3.org/1999/xlink" width="500" zoomAndPan="magnify" viewBox="0 0 375 374.999991" height="500" preserveAspectRatio="xMidYMid meet" version="1.0"><path fill="#7e7e7e" d="M 264.257812 190.574219 C 261.332031 183.546875 257.527344 177.109375 252.261719 171.546875 C 245.824219 164.8125 238.800781 158.664062 230.609375 153.980469 C 228.269531 152.515625 207.789062 144.320312 207.789062 143.734375 C 207.789062 143.441406 207.789062 84.015625 207.789062 84.894531 C 210.714844 86.945312 215.394531 91.335938 218.027344 95.140625 C 220.367188 98.359375 221.246094 102.167969 223.296875 105.679688 C 227.683594 113.289062 235 117.390625 243.777344 117.097656 C 258.699219 116.511719 265.71875 102.167969 263.671875 89.285156 C 261.332031 74.941406 252.847656 63.523438 241.433594 54.742188 C 235.582031 50.351562 229.4375 46.839844 223.003906 44.203125 C 221.539062 43.617188 204.863281 38.347656 204.863281 38.054688 L 204.863281 8.78125 C 204.863281 4.097656 201.644531 0 196.960938 0 L 171.800781 0 C 167.117188 0 163.898438 4.097656 163.898438 8.78125 C 163.898438 8.78125 163.898438 38.640625 163.898438 38.054688 C 163.898438 37.472656 149.269531 43.910156 139.90625 49.179688 C 132.300781 53.570312 125.277344 59.132812 119.71875 65.867188 C 107.722656 80.210938 99.53125 101.289062 102.457031 120.023438 C 106.84375 149.296875 126.15625 169.789062 154.828125 178.863281 C 157.753906 179.742188 158.632812 180.621094 160.972656 181.207031 C 160.972656 199.941406 160.972656 218.96875 160.972656 237.703125 C 160.972656 240.632812 161.265625 243.851562 160.679688 246.488281 C 156.585938 244.144531 151.609375 241.21875 148.976562 237.414062 C 139.90625 224.824219 141.664062 206.675781 122.058594 205.796875 C 99.824219 204.917969 98.359375 231.265625 103.335938 246.78125 C 108.894531 264.050781 122.351562 276.933594 137.859375 285.714844 C 141.957031 288.054688 146.050781 290.105469 150.441406 291.570312 C 153.367188 292.738281 160.097656 293.03125 161.558594 295.960938 C 163.023438 298.886719 161.558594 306.792969 161.558594 310.304688 L 137.273438 310.304688 C 133.761719 310.304688 131.421875 313.816406 130.546875 315.867188 C 129.667969 317.914062 129.667969 321.136719 132.300781 323.769531 L 179.113281 372.367188 C 180.578125 374.121094 182.917969 375 184.964844 375 C 187.308594 375 189.355469 374.121094 190.816406 372.367188 L 237.632812 323.769531 C 240.265625 321.136719 240.265625 317.914062 239.386719 315.867188 C 238.507812 313.816406 236.460938 310.304688 232.65625 310.304688 L 207.789062 310.304688 L 207.789062 294.496094 C 218.90625 289.226562 231.488281 286.300781 241.433594 278.394531 C 267.183594 258.195312 276.546875 220.140625 264.257812 190.574219 Z M 163.898438 132.609375 C 160.097656 131.148438 154.539062 129.390625 152.195312 127.632812 C 149.855469 125.585938 148.101562 123.828125 147.515625 121.78125 C 146.636719 119.4375 146.050781 116.511719 146.050781 113.289062 C 146.050781 107.4375 147.222656 102.75 149.269531 98.945312 C 151.609375 95.140625 154.246094 91.921875 157.753906 89.578125 C 158.632812 88.992188 162.4375 88.113281 163.605469 87.527344 L 163.605469 132.609375 Z M 221.246094 232.726562 C 218.90625 237.121094 215.980469 240.339844 212.175781 242.972656 C 210.128906 244.4375 210.128906 245.902344 207.496094 246.78125 L 207.496094 193.207031 C 213.347656 196.136719 215.394531 199.355469 218.027344 202.285156 C 220.660156 205.210938 222.417969 207.84375 223.003906 210.480469 C 223.878906 213.40625 224.757812 215.75 224.757812 217.796875 C 225.34375 223.652344 223.585938 228.628906 221.246094 232.726562 Z M 221.246094 232.726562 " fill-opacity="1" fill-rule="nonzero"/></svg>