<svg xmlns="http://www.w3.org/2000/svg" xmlns:xlink="http://www.w3.org/1999/xlink" width="500" zoomAndPan="magnify" viewBox="0 0 375 374.999991" height="500" preserveAspectRatio="xMidYMid meet" version="1.0"><defs><clipPath id="id1"><path d="M 4.566406 52 L 327 52 L 327 375 L 4.566406 375 Z M 4.566406 52 " clip-rule="nonzero"/></clipPath><clipPath id="id2"><path d="M 293 0 L 372.816406 0 L 372.816406 81 L 293 81 Z M 293 0 " clip-rule="nonzero"/></clipPath></defs><g clip-path="url(#id1)"><path fill="#80858e" d="M 319.527344 213.578125 L 312.476562 213.578125 C 312.476562 254.160156 296.039062 290.835938 269.449219 317.449219 C 242.84375 344.046875 206.160156 360.46875 165.558594 360.46875 C 124.96875 360.46875 88.285156 344.03125 61.667969 317.449219 C 35.0625 290.851562 18.636719 254.171875 18.636719 213.578125 C 18.636719 172.996094 35.078125 136.320312 61.667969 109.707031 C 88.269531 83.105469 124.953125 66.6875 165.558594 66.6875 C 206.148438 66.6875 242.832031 83.121094 269.449219 109.707031 C 296.050781 136.304688 312.476562 172.980469 312.476562 213.578125 L 326.574219 213.578125 C 326.574219 169.148438 308.542969 128.847656 279.417969 99.738281 C 250.304688 70.617188 210.011719 52.589844 165.558594 52.589844 C 121.121094 52.589844 80.8125 70.617188 51.699219 99.738281 C 22.570312 128.847656 4.539062 169.132812 4.539062 213.578125 C 4.539062 258.007812 22.570312 298.304688 51.699219 327.414062 C 80.8125 356.535156 121.105469 374.5625 165.558594 374.5625 C 209.996094 374.5625 250.304688 356.535156 279.417969 327.414062 C 308.542969 298.304688 326.574219 258.019531 326.574219 213.578125 L 319.527344 213.578125 " fill-opacity="1" fill-rule="nonzero"/></g><path fill="#80858e" d="M 207.8125 213.578125 L 200.761719 213.578125 C 200.761719 223.316406 196.828125 232.070312 190.457031 238.46875 C 184.070312 244.855469 175.3125 248.773438 165.558594 248.773438 C 155.816406 248.773438 147.0625 244.839844 140.660156 238.46875 C 134.273438 232.085938 130.355469 223.332031 130.355469 213.578125 C 130.355469 203.835938 134.289062 195.082031 140.660156 188.683594 C 147.046875 182.296875 155.800781 178.378906 165.558594 178.378906 C 175.300781 178.378906 184.054688 182.3125 190.457031 188.683594 C 196.84375 195.070312 200.761719 203.824219 200.761719 213.578125 L 214.859375 213.578125 C 214.859375 199.988281 209.332031 187.625 200.421875 178.71875 C 191.527344 169.808594 179.148438 164.285156 165.558594 164.285156 C 151.96875 164.285156 139.601562 169.808594 130.691406 178.71875 C 121.78125 187.613281 116.253906 199.988281 116.253906 213.578125 C 116.253906 227.164062 121.78125 239.527344 130.691406 248.4375 C 139.589844 257.34375 151.96875 262.871094 165.558594 262.871094 C 179.148438 262.871094 191.511719 257.34375 200.421875 248.4375 C 209.332031 239.542969 214.859375 227.164062 214.859375 213.578125 L 207.8125 213.578125 " fill-opacity="1" fill-rule="nonzero"/><path fill="#ffffff" d="M 270.519531 213.578125 L 263.472656 213.578125 C 263.472656 240.640625 252.515625 265.070312 234.792969 282.800781 C 217.058594 300.535156 192.613281 311.472656 165.558594 311.472656 C 138.488281 311.472656 114.054688 300.519531 96.320312 282.800781 C 78.585938 265.070312 67.644531 240.625 67.644531 213.578125 C 67.644531 186.511719 78.597656 162.085938 96.320312 144.351562 C 114.054688 126.621094 138.503906 115.683594 165.558594 115.683594 C 192.625 115.683594 217.058594 126.632812 234.792969 144.351562 C 252.53125 162.085938 263.472656 186.511719 263.472656 213.578125 L 277.570312 213.578125 C 277.570312 182.664062 265.023438 154.628906 244.761719 134.386719 C 224.515625 114.132812 196.460938 101.585938 165.558594 101.585938 C 134.640625 101.585938 106.597656 114.132812 86.351562 134.386719 C 66.09375 154.628906 53.53125 182.679688 53.546875 213.578125 C 53.546875 244.488281 66.09375 272.523438 86.351562 292.765625 C 106.597656 313.023438 134.652344 325.566406 165.558594 325.566406 C 196.476562 325.566406 224.515625 313.023438 244.761719 292.765625 C 265.023438 272.523438 277.570312 244.476562 277.570312 213.578125 L 270.519531 213.578125 " fill-opacity="1" fill-rule="nonzero"/><path fill="#c6c6c6" d="M 262.457031 103.164062 L 238.179688 128.296875 C 240.460938 130.242188 242.660156 132.273438 244.777344 134.386719 C 245.988281 135.601562 247.160156 136.824219 248.316406 138.09375 L 272.59375 112.960938 C 271.5625 111.863281 270.519531 110.792969 269.449219 109.71875 C 267.179688 107.449219 264.851562 105.265625 262.457031 103.164062 M 304.679688 62.554688 C 302.832031 62.554688 300.988281 63.273438 299.605469 64.710938 L 272.253906 93.015625 C 274.707031 95.1875 277.089844 97.441406 279.417969 99.753906 C 280.417969 100.753906 281.417969 101.785156 282.390625 102.8125 L 309.742188 74.507812 C 312.449219 71.703125 312.363281 67.25 309.574219 64.542969 C 308.207031 63.21875 306.441406 62.554688 304.679688 62.554688 " fill-opacity="1" fill-rule="nonzero"/><path fill="#ffffff" d="M 272.253906 93.015625 L 262.441406 103.164062 C 264.839844 105.28125 267.179688 107.464844 269.433594 109.71875 C 270.507812 110.792969 271.550781 111.863281 272.578125 112.960938 L 282.390625 102.8125 C 281.402344 101.785156 280.417969 100.753906 279.417969 99.753906 C 277.105469 97.429688 274.707031 95.1875 272.253906 93.015625 " fill-opacity="1" fill-rule="nonzero"/><path fill="#c6c6c6" d="M 184.449219 183.878906 L 160.480469 208.6875 C 157.777344 211.492188 157.859375 215.945312 160.652344 218.652344 C 162.019531 219.976562 163.78125 220.625 165.542969 220.625 C 167.390625 220.625 169.238281 219.90625 170.617188 218.46875 L 194.585938 193.675781 C 193.359375 191.882812 191.976562 190.21875 190.441406 188.699219 C 188.636719 186.878906 186.621094 185.257812 184.449219 183.878906 M 228.351562 138.460938 L 194.402344 173.601562 C 196.546875 175.152344 198.5625 176.871094 200.421875 178.734375 C 201.890625 180.199219 203.257812 181.75 204.539062 183.398438 L 238.488281 148.257812 C 237.289062 146.933594 236.0625 145.621094 234.792969 144.367188 C 232.738281 142.296875 230.578125 140.320312 228.351562 138.460938 " fill-opacity="1" fill-rule="nonzero"/><path fill="#ffffff" d="M 194.390625 173.585938 L 184.449219 183.878906 C 186.621094 185.257812 188.621094 186.878906 190.441406 188.683594 C 191.964844 190.21875 193.359375 191.882812 194.585938 193.660156 L 204.527344 183.371094 C 203.257812 181.734375 201.875 180.171875 200.410156 178.703125 C 198.5625 176.859375 196.546875 175.136719 194.390625 173.585938 " fill-opacity="1" fill-rule="nonzero"/><path fill="#ffffff" d="M 238.164062 128.296875 L 228.351562 138.460938 C 230.59375 140.335938 232.738281 142.296875 234.808594 144.367188 C 236.078125 145.636719 237.304688 146.933594 238.503906 148.257812 L 248.316406 138.09375 C 247.160156 136.839844 245.988281 135.597656 244.777344 134.386719 C 242.648438 132.273438 240.449219 130.230469 238.164062 128.296875 " fill-opacity="1" fill-rule="nonzero"/><g clip-path="url(#id2)"><path stroke-linecap="round" transform="matrix(1.409839, 0, 0, 1.40957, -111.320575, -111.963127)" fill="none" stroke-linejoin="round" d="M 338.020828 105.940346 L 312.69103 131.269438 L 292.639428 130.418669 L 291.788821 110.36878 L 317.118619 85.039687 L 317.969226 105.089576 Z M 338.020828 105.940346 " stroke="#5fc3d8" stroke-width="10" stroke-opacity="1" stroke-miterlimit="10"/></g></svg>